<mxfile host="app.diagrams.net" agent="Mozilla/5.0 (Windows NT 10.0; Win64; x64) AppleWebKit/537.36 (KHTML, like Gecko) Chrome/126.0.0.0 YaBrowser/24.7.0.0 Safari/537.36" version="24.7.14">
  <diagram name="Страница — 1" id="6AiZPtGwOmPB7GT723q-">
    <mxGraphModel dx="1434" dy="759" grid="1" gridSize="10" guides="1" tooltips="1" connect="1" arrows="1" fold="1" page="1" pageScale="1" pageWidth="827" pageHeight="1169" math="0" shadow="0">
      <root>
        <mxCell id="0" />
        <mxCell id="1" parent="0" />
        <mxCell id="zf2MDbxrTftu0CcOc3KH-38" value="Client" style="shape=umlActor;verticalLabelPosition=bottom;verticalAlign=top;html=1;outlineConnect=0;strokeWidth=3;rounded=0;" parent="1" vertex="1">
          <mxGeometry x="240" y="640" width="35.88" height="70" as="geometry" />
        </mxCell>
        <mxCell id="zf2MDbxrTftu0CcOc3KH-39" value="Gateway&lt;div&gt;API&lt;/div&gt;" style="whiteSpace=wrap;html=1;aspect=fixed;rounded=0;" parent="1" vertex="1">
          <mxGeometry x="380" y="640" width="80" height="80" as="geometry" />
        </mxCell>
        <mxCell id="zf2MDbxrTftu0CcOc3KH-40" value="" style="endArrow=classic;html=1;rounded=0;entryX=0;entryY=0.5;entryDx=0;entryDy=0;" parent="1" target="zf2MDbxrTftu0CcOc3KH-39" edge="1">
          <mxGeometry width="50" height="50" relative="1" as="geometry">
            <mxPoint x="280" y="680" as="sourcePoint" />
            <mxPoint x="419.06" y="720" as="targetPoint" />
          </mxGeometry>
        </mxCell>
        <mxCell id="zf2MDbxrTftu0CcOc3KH-43" value="Spring Cloud&lt;div&gt;Config&lt;/div&gt;&lt;div&gt;Server&lt;/div&gt;" style="whiteSpace=wrap;html=1;aspect=fixed;rounded=0;" parent="1" vertex="1">
          <mxGeometry x="600" y="520" width="80" height="80" as="geometry" />
        </mxCell>
        <mxCell id="zf2MDbxrTftu0CcOc3KH-45" value="Eureka&lt;div&gt;Discovery&lt;/div&gt;&lt;div&gt;Server&lt;/div&gt;" style="whiteSpace=wrap;html=1;aspect=fixed;rounded=0;" parent="1" vertex="1">
          <mxGeometry x="720" y="520" width="80" height="80" as="geometry" />
        </mxCell>
        <mxCell id="zf2MDbxrTftu0CcOc3KH-46" value="Account&lt;div&gt;Service&lt;/div&gt;" style="whiteSpace=wrap;html=1;aspect=fixed;rounded=0;" parent="1" vertex="1">
          <mxGeometry x="120" y="320" width="80" height="80" as="geometry" />
        </mxCell>
        <mxCell id="zf2MDbxrTftu0CcOc3KH-48" value="&lt;div&gt;Bill&amp;nbsp;&lt;/div&gt;&lt;div&gt;Service&lt;/div&gt;" style="whiteSpace=wrap;html=1;aspect=fixed;rounded=0;" parent="1" vertex="1">
          <mxGeometry x="640" y="320" width="80" height="80" as="geometry" />
        </mxCell>
        <mxCell id="zf2MDbxrTftu0CcOc3KH-49" value="&lt;div&gt;Deposit&lt;/div&gt;&lt;div&gt;Service&lt;/div&gt;" style="whiteSpace=wrap;html=1;aspect=fixed;rounded=0;" parent="1" vertex="1">
          <mxGeometry x="380" y="150" width="80" height="80" as="geometry" />
        </mxCell>
        <mxCell id="zf2MDbxrTftu0CcOc3KH-58" value="" style="endArrow=classic;html=1;rounded=0;exitX=1;exitY=0.5;exitDx=0;exitDy=0;entryX=0.5;entryY=1;entryDx=0;entryDy=0;" parent="1" source="zf2MDbxrTftu0CcOc3KH-39" target="zf2MDbxrTftu0CcOc3KH-45" edge="1">
          <mxGeometry width="50" height="50" relative="1" as="geometry">
            <mxPoint x="500" y="520" as="sourcePoint" />
            <mxPoint x="550" y="470" as="targetPoint" />
            <Array as="points">
              <mxPoint x="760" y="680" />
            </Array>
          </mxGeometry>
        </mxCell>
        <mxCell id="zf2MDbxrTftu0CcOc3KH-64" value="" style="endArrow=classic;html=1;rounded=0;exitX=1;exitY=0.5;exitDx=0;exitDy=0;entryX=0.5;entryY=0;entryDx=0;entryDy=0;" parent="1" source="zf2MDbxrTftu0CcOc3KH-48" target="zf2MDbxrTftu0CcOc3KH-43" edge="1">
          <mxGeometry width="50" height="50" relative="1" as="geometry">
            <mxPoint x="460" y="410" as="sourcePoint" />
            <mxPoint x="510" y="360" as="targetPoint" />
            <Array as="points">
              <mxPoint x="760" y="360" />
              <mxPoint x="760" y="440" />
              <mxPoint x="640" y="440" />
            </Array>
          </mxGeometry>
        </mxCell>
        <mxCell id="zf2MDbxrTftu0CcOc3KH-65" value="" style="endArrow=classic;html=1;rounded=0;entryX=0.5;entryY=1;entryDx=0;entryDy=0;" parent="1" target="zf2MDbxrTftu0CcOc3KH-43" edge="1">
          <mxGeometry width="50" height="50" relative="1" as="geometry">
            <mxPoint x="640" y="680" as="sourcePoint" />
            <mxPoint x="570" y="550" as="targetPoint" />
          </mxGeometry>
        </mxCell>
        <mxCell id="zf2MDbxrTftu0CcOc3KH-66" value="" style="endArrow=classic;html=1;rounded=0;entryX=0.498;entryY=-0.055;entryDx=0;entryDy=0;entryPerimeter=0;" parent="1" target="zf2MDbxrTftu0CcOc3KH-45" edge="1">
          <mxGeometry width="50" height="50" relative="1" as="geometry">
            <mxPoint x="760" y="440" as="sourcePoint" />
            <mxPoint x="600" y="480" as="targetPoint" />
          </mxGeometry>
        </mxCell>
        <mxCell id="zf2MDbxrTftu0CcOc3KH-68" value="" style="endArrow=none;html=1;rounded=0;exitX=0;exitY=0.5;exitDx=0;exitDy=0;" parent="1" source="zf2MDbxrTftu0CcOc3KH-46" edge="1">
          <mxGeometry width="50" height="50" relative="1" as="geometry">
            <mxPoint x="470" y="330" as="sourcePoint" />
            <mxPoint x="760" y="360" as="targetPoint" />
            <Array as="points">
              <mxPoint x="80" y="360" />
              <mxPoint x="80" y="80" />
              <mxPoint x="760" y="80" />
            </Array>
          </mxGeometry>
        </mxCell>
        <mxCell id="zf2MDbxrTftu0CcOc3KH-70" value="" style="endArrow=none;html=1;rounded=0;exitX=0.5;exitY=0;exitDx=0;exitDy=0;" parent="1" source="zf2MDbxrTftu0CcOc3KH-49" edge="1">
          <mxGeometry width="50" height="50" relative="1" as="geometry">
            <mxPoint x="510" y="310" as="sourcePoint" />
            <mxPoint x="420" y="80" as="targetPoint" />
          </mxGeometry>
        </mxCell>
        <mxCell id="zf2MDbxrTftu0CcOc3KH-71" value="" style="endArrow=classic;html=1;rounded=0;exitX=0.5;exitY=0;exitDx=0;exitDy=0;entryX=0;entryY=0.5;entryDx=0;entryDy=0;" parent="1" source="zf2MDbxrTftu0CcOc3KH-39" target="zf2MDbxrTftu0CcOc3KH-48" edge="1">
          <mxGeometry relative="1" as="geometry">
            <mxPoint x="360" y="420" as="sourcePoint" />
            <mxPoint x="460" y="420" as="targetPoint" />
          </mxGeometry>
        </mxCell>
        <mxCell id="zf2MDbxrTftu0CcOc3KH-72" value="REST" style="edgeLabel;resizable=0;html=1;;align=center;verticalAlign=middle;rounded=0;" parent="zf2MDbxrTftu0CcOc3KH-71" connectable="0" vertex="1">
          <mxGeometry relative="1" as="geometry" />
        </mxCell>
        <mxCell id="zf2MDbxrTftu0CcOc3KH-73" value="" style="endArrow=classic;html=1;rounded=0;exitX=0.5;exitY=0;exitDx=0;exitDy=0;entryX=0.5;entryY=1;entryDx=0;entryDy=0;" parent="1" source="zf2MDbxrTftu0CcOc3KH-39" target="zf2MDbxrTftu0CcOc3KH-49" edge="1">
          <mxGeometry relative="1" as="geometry">
            <mxPoint x="430" y="650" as="sourcePoint" />
            <mxPoint x="650" y="370" as="targetPoint" />
          </mxGeometry>
        </mxCell>
        <mxCell id="zf2MDbxrTftu0CcOc3KH-74" value="REST" style="edgeLabel;resizable=0;html=1;;align=center;verticalAlign=middle;rounded=0;" parent="zf2MDbxrTftu0CcOc3KH-73" connectable="0" vertex="1">
          <mxGeometry relative="1" as="geometry" />
        </mxCell>
        <mxCell id="zf2MDbxrTftu0CcOc3KH-77" value="" style="endArrow=classic;html=1;rounded=0;exitX=0.5;exitY=0;exitDx=0;exitDy=0;entryX=1;entryY=0.5;entryDx=0;entryDy=0;" parent="1" target="zf2MDbxrTftu0CcOc3KH-46" edge="1">
          <mxGeometry relative="1" as="geometry">
            <mxPoint x="420" y="640" as="sourcePoint" />
            <mxPoint x="520" y="240" as="targetPoint" />
          </mxGeometry>
        </mxCell>
        <mxCell id="zf2MDbxrTftu0CcOc3KH-78" value="REST" style="edgeLabel;resizable=0;html=1;;align=center;verticalAlign=middle;rounded=0;" parent="zf2MDbxrTftu0CcOc3KH-77" connectable="0" vertex="1">
          <mxGeometry relative="1" as="geometry" />
        </mxCell>
        <mxCell id="zf2MDbxrTftu0CcOc3KH-86" value="" style="shape=flexArrow;endArrow=classic;startArrow=classic;html=1;rounded=0;width=3.3333333333333335;startSize=9.266666666666666;startWidth=4.722222222222222;endWidth=4.722222222222222;endSize=9.266666666666666;entryX=-0.05;entryY=0.625;entryDx=0;entryDy=0;exitX=0.5;exitY=0;exitDx=0;exitDy=0;entryPerimeter=0;" parent="1" source="zf2MDbxrTftu0CcOc3KH-46" target="zf2MDbxrTftu0CcOc3KH-49" edge="1">
          <mxGeometry width="100" height="100" relative="1" as="geometry">
            <mxPoint x="160" y="310" as="sourcePoint" />
            <mxPoint x="280" y="200" as="targetPoint" />
            <Array as="points">
              <mxPoint x="160" y="200" />
            </Array>
          </mxGeometry>
        </mxCell>
        <mxCell id="zf2MDbxrTftu0CcOc3KH-109" value="REST" style="edgeLabel;html=1;align=center;verticalAlign=middle;resizable=0;points=[];rounded=0;" parent="zf2MDbxrTftu0CcOc3KH-86" vertex="1" connectable="0">
          <mxGeometry x="0.2714" relative="1" as="geometry">
            <mxPoint as="offset" />
          </mxGeometry>
        </mxCell>
        <mxCell id="zf2MDbxrTftu0CcOc3KH-87" value="" style="shape=flexArrow;endArrow=classic;startArrow=classic;html=1;rounded=0;width=3.3333333333333335;startSize=9.266666666666666;startWidth=4.722222222222222;endWidth=4.722222222222222;endSize=9.266666666666666;entryX=0;entryY=0.25;entryDx=0;entryDy=0;exitX=1;exitY=1;exitDx=0;exitDy=0;" parent="1" source="zf2MDbxrTftu0CcOc3KH-49" target="zf2MDbxrTftu0CcOc3KH-48" edge="1">
          <mxGeometry width="100" height="100" relative="1" as="geometry">
            <mxPoint x="360" y="200" as="sourcePoint" />
            <mxPoint x="530" y="280" as="targetPoint" />
            <Array as="points" />
          </mxGeometry>
        </mxCell>
        <mxCell id="zf2MDbxrTftu0CcOc3KH-111" value="REST" style="edgeLabel;html=1;align=center;verticalAlign=middle;resizable=0;points=[];rounded=0;" parent="zf2MDbxrTftu0CcOc3KH-87" vertex="1" connectable="0">
          <mxGeometry x="0.4278" relative="1" as="geometry">
            <mxPoint as="offset" />
          </mxGeometry>
        </mxCell>
        <mxCell id="zf2MDbxrTftu0CcOc3KH-88" value="" style="shape=flexArrow;endArrow=classic;startArrow=classic;html=1;rounded=0;width=3.3333333333333335;startSize=9.266666666666666;startWidth=4.722222222222222;endWidth=4.722222222222222;endSize=9.266666666666666;entryX=0.51;entryY=-0.058;entryDx=0;entryDy=0;exitX=1.025;exitY=0.588;exitDx=0;exitDy=0;entryPerimeter=0;exitPerimeter=0;" parent="1" source="zf2MDbxrTftu0CcOc3KH-49" target="zf2MDbxrTftu0CcOc3KH-48" edge="1">
          <mxGeometry width="100" height="100" relative="1" as="geometry">
            <mxPoint x="620" y="300" as="sourcePoint" />
            <mxPoint x="740" y="180" as="targetPoint" />
            <Array as="points">
              <mxPoint x="680" y="200" />
            </Array>
          </mxGeometry>
        </mxCell>
        <mxCell id="zf2MDbxrTftu0CcOc3KH-107" value="REST" style="edgeLabel;html=1;align=center;verticalAlign=middle;resizable=0;points=[];rounded=0;" parent="zf2MDbxrTftu0CcOc3KH-88" vertex="1" connectable="0">
          <mxGeometry x="-0.2911" y="-1" relative="1" as="geometry">
            <mxPoint as="offset" />
          </mxGeometry>
        </mxCell>
        <mxCell id="zf2MDbxrTftu0CcOc3KH-89" value="" style="shape=flexArrow;endArrow=classic;startArrow=classic;html=1;rounded=0;width=3.3333333333333335;startSize=9.266666666666666;startWidth=4.722222222222222;endWidth=4.722222222222222;endSize=9.266666666666666;entryX=0;entryY=1;entryDx=0;entryDy=0;exitX=1;exitY=0.5;exitDx=0;exitDy=0;" parent="1" target="zf2MDbxrTftu0CcOc3KH-49" edge="1">
          <mxGeometry width="100" height="100" relative="1" as="geometry">
            <mxPoint x="200" y="340" as="sourcePoint" />
            <mxPoint x="480" y="480" as="targetPoint" />
            <Array as="points" />
          </mxGeometry>
        </mxCell>
        <mxCell id="zf2MDbxrTftu0CcOc3KH-110" value="REST" style="edgeLabel;html=1;align=center;verticalAlign=middle;resizable=0;points=[];rounded=0;" parent="zf2MDbxrTftu0CcOc3KH-89" vertex="1" connectable="0">
          <mxGeometry x="-0.4261" y="-1" relative="1" as="geometry">
            <mxPoint as="offset" />
          </mxGeometry>
        </mxCell>
        <mxCell id="zf2MDbxrTftu0CcOc3KH-98" value="DEP DB" style="shape=cylinder3;whiteSpace=wrap;html=1;boundedLbl=1;backgroundOutline=1;size=15;rounded=0;" parent="1" vertex="1">
          <mxGeometry x="490" y="90" width="50" height="50" as="geometry" />
        </mxCell>
        <mxCell id="zf2MDbxrTftu0CcOc3KH-99" value="ACC DB" style="shape=cylinder3;whiteSpace=wrap;html=1;boundedLbl=1;backgroundOutline=1;size=15;rounded=0;" parent="1" vertex="1">
          <mxGeometry x="90" y="220" width="50" height="50" as="geometry" />
        </mxCell>
        <mxCell id="zf2MDbxrTftu0CcOc3KH-100" value="BILL DB" style="shape=cylinder3;whiteSpace=wrap;html=1;boundedLbl=1;backgroundOutline=1;size=15;rounded=0;" parent="1" vertex="1">
          <mxGeometry x="700" y="220" width="50" height="50" as="geometry" />
        </mxCell>
        <mxCell id="zf2MDbxrTftu0CcOc3KH-102" value="" style="endArrow=none;html=1;rounded=0;exitX=0;exitY=0;exitDx=0;exitDy=0;entryX=0.5;entryY=1;entryDx=0;entryDy=0;entryPerimeter=0;" parent="1" source="zf2MDbxrTftu0CcOc3KH-46" target="zf2MDbxrTftu0CcOc3KH-99" edge="1">
          <mxGeometry width="50" height="50" relative="1" as="geometry">
            <mxPoint x="320" y="260" as="sourcePoint" />
            <mxPoint x="370" y="210" as="targetPoint" />
          </mxGeometry>
        </mxCell>
        <mxCell id="zf2MDbxrTftu0CcOc3KH-103" value="" style="endArrow=none;html=1;rounded=0;entryX=1;entryY=0;entryDx=0;entryDy=0;exitX=0;exitY=1;exitDx=0;exitDy=-15;exitPerimeter=0;" parent="1" source="zf2MDbxrTftu0CcOc3KH-98" target="zf2MDbxrTftu0CcOc3KH-49" edge="1">
          <mxGeometry width="50" height="50" relative="1" as="geometry">
            <mxPoint x="600" y="140" as="sourcePoint" />
            <mxPoint x="560" y="160" as="targetPoint" />
          </mxGeometry>
        </mxCell>
        <mxCell id="zf2MDbxrTftu0CcOc3KH-104" value="" style="endArrow=none;html=1;rounded=0;entryX=0.5;entryY=1;entryDx=0;entryDy=0;entryPerimeter=0;exitX=0.5;exitY=1;exitDx=0;exitDy=0;exitPerimeter=0;" parent="1" source="zf2MDbxrTftu0CcOc3KH-100" edge="1">
          <mxGeometry width="50" height="50" relative="1" as="geometry">
            <mxPoint x="785" y="330" as="sourcePoint" />
            <mxPoint x="720" y="320" as="targetPoint" />
          </mxGeometry>
        </mxCell>
      </root>
    </mxGraphModel>
  </diagram>
</mxfile>
